<svg xmlns="http://www.w3.org/2000/svg" width="78" height="92" viewBox="0 0 78 92">
    <g fill="none" fill-rule="evenodd">
        <rect width="68" height="82" x="10" y="10" fill="#E9EAED" rx="4"/>
        <rect width="68" height="82" fill="#A9B2BD" rx="4"/>
        <g fill="#FFF" fill-rule="nonzero">
            <path d="M32.796 11.099c.135.022.267.062.391.12v.067c.043.767 0 1.568.052 2.343v.98h-.043a3.987 3.987 0 0 0-2.47-1.764c-.966-.265-2-.077-2.812.511a2.624 2.624 0 0 0-.97 2.181c0 1.005.664 1.704 1.269 2.436.144.188.332.358.477.537a9.37 9.37 0 0 0-1.653 1.567v.06l-.094-.077a8.86 8.86 0 0 1-1.78-2.172 4.694 4.694 0 0 1-.247-3.961 4.532 4.532 0 0 1 2.044-2.326 5.852 5.852 0 0 1 1.372-.51 13.766 13.766 0 0 1 1.704-.214c.916-.019 1.832.055 2.734.222m5.852-.085c.323.062.642.145.954.247.213.068.392.17.605.238a4.396 4.396 0 0 1 2.445 2.7 4.992 4.992 0 0 1-.852 4.209 32.89 32.89 0 0 1-3.45 3.322c-1.167 1.073-2.027 2.436-1.704 4.055.116.479.267.949.452 1.405a3.901 3.901 0 0 1-1.883 1.227 5.963 5.963 0 0 1-1.337-3.714 4.634 4.634 0 0 1 1.124-2.956c.401-.472.837-.913 1.304-1.32a22.336 22.336 0 0 0 3.663-3.783c.377-.65.434-1.44.153-2.138a2.692 2.692 0 0 0-1.559-1.584 3.637 3.637 0 0 0-1.704-.162 3.34 3.34 0 0 0-2.649 1.883v-2.726-.597-.085c.227-.089.465-.146.707-.17a12.147 12.147 0 0 1 2.99-.213c.258.023.514.063.767.12"/>
            <path d="M38.043 18.178c-.487.542-1.02 1.04-1.593 1.49a3.953 3.953 0 0 1-.622-.29 5.111 5.111 0 0 0-5.111.384 5.111 5.111 0 0 0-2.061 5.571c.191.65.478 1.267.851 1.832a1.559 1.559 0 0 1-.306.298 3.56 3.56 0 0 1-1.602.852h-.093c-.069-.085-.17-.205-.256-.324a6.602 6.602 0 0 1 1.985-9.37 10.75 10.75 0 0 1 2.624-1.15 7.667 7.667 0 0 1 6.184.647"/>
            <path d="M31.356 20.64a6.057 6.057 0 0 1 1.704 2.206 4.95 4.95 0 0 1-.511 4.685 8.331 8.331 0 0 1-4.83 3.126 11.253 11.253 0 0 1-4.49.069c-.46-.077-.92-.18-1.371-.282h-.12v-.255c0-1.176-.05-2.3-.042-3.408h.068c.077.137.169.266.273.384a4.847 4.847 0 0 0 2.504 1.576c.185.044.373.078.562.102a5.111 5.111 0 0 0 4.072-.758 3.637 3.637 0 0 0 1.423-3.987 4.361 4.361 0 0 0-1.304-1.806 4.072 4.072 0 0 1 1.483-2.002c.247 0 .374.247.587.375l-.008-.025zm8.961.025a.605.605 0 0 1 .086.12 6.679 6.679 0 0 1-.852 7.274 7.411 7.411 0 0 1-2.292 1.747 9.08 9.08 0 0 1-1.397.553 8.91 8.91 0 0 1-4.446.4 5.852 5.852 0 0 1-1.406-.417v-.068a6.414 6.414 0 0 0 1.95-1.38 5.264 5.264 0 0 0 2.735.145 5.188 5.188 0 0 0 3.748-3.408 5.299 5.299 0 0 0 0-3.313v-.077c.324-.281.665-.63 1.023-.937.24-.221.494-.429.758-.622a.528.528 0 0 1 .102-.05l-.009.033zm5.222 6.031c0 .852-.05 1.704-.05 2.556 0 .366 0 .758-.069 1.116-.162.085-.35.093-.52.17-1.374.329-2.79.45-4.2.358a10.589 10.589 0 0 1-1.703-.281 4.149 4.149 0 0 1-1.38-.494c.61-.365 1.18-.79 1.704-1.27l.076-.068.256.077a6.031 6.031 0 0 0 4.421-.664 5.111 5.111 0 0 0 1.431-1.5h.034zM48.265 34.414v.852s-.153-.043-.247-.077a1.96 1.96 0 0 0-1.27-.306.4.4 0 0 0-.255.221.332.332 0 0 0 0 .264c.343.265.734.461 1.15.58.416.159.712.53.776.97a1.21 1.21 0 0 1-.537 1.236 2.104 2.104 0 0 1-1.389.213 3.782 3.782 0 0 1-.903-.154v-.97c.094 0 .205.084.299.127.363.21.766.34 1.184.383a.494.494 0 0 0 .468-.213.443.443 0 0 0 0-.28c-.145-.307-.511-.341-.767-.495-.502-.204-1.192-.51-1.192-1.175a1.218 1.218 0 0 1 .707-1.219 2.905 2.905 0 0 1 1.388-.102c.179.03.355.07.529.12M14.123 32.88v1.013c0 .052 0 .052-.094 0a3.041 3.041 0 0 0-1.184-.46.852.852 0 0 0-.8.239.605.605 0 0 0-.094.537c.23.46.775.536 1.158.8.583.22 1.04.684 1.252 1.27.168.578 0 1.201-.434 1.618a3.075 3.075 0 0 1-2.479.409 3.62 3.62 0 0 1-.52-.136v-1.1h.077c.327.21.683.37 1.056.478.315.109.657.109.972 0a.639.639 0 0 0 .306-.63c0-.495-.596-.64-.945-.852a4.37 4.37 0 0 1-1.048-.63 1.5 1.5 0 0 1-.494-1.457c.1-.515.457-.942.945-1.133a3.671 3.671 0 0 1 2.3 0l.026.034zm14.456-.034a5.903 5.903 0 0 0-.145 1.107v1.917c-.047.75.002 1.503.145 2.24 0 .094.06.188.077.273h-1.338c-.051 0 0-.111 0-.162a7.53 7.53 0 0 0 .153-2.045v-2.436a4.046 4.046 0 0 0-.144-.724.63.63 0 0 1 .29-.085l.936-.153c.051 0 .06 0 .043.093l-.017-.025zm16.611.025c-.088.363-.14.734-.153 1.108v1.916c-.046.741 0 1.485.136 2.215 0 .094.06.188.085.273H43.93c-.05 0 0-.111 0-.162a7.48 7.48 0 0 0 .154-2.045v-2.436a4.54 4.54 0 0 0-.137-.724.596.596 0 0 1 .281-.085l.929-.153c.06 0 .068 0 .051.093h-.017zm-21.841.392a.681.681 0 0 1-.162.784.613.613 0 0 1-1.006-.273.681.681 0 0 1 .128-.63.613.613 0 0 1 .648-.205.605.605 0 0 1 .392.324zm10.111.35a8.11 8.11 0 0 0 0 .851h1.772c.051 0 0 .162.068.247.164.59.39 1.161.673 1.704a.06.06 0 0 0 .077 0c.212-.434.38-.888.502-1.355.05-.186.067-.378.051-.57h1.031a9.421 9.421 0 0 0-.733 1.703l-.06.145-.851 2.113c-.194.459-.502.86-.894 1.167-.13.022-.263.022-.392 0a2.675 2.675 0 0 1-.452-.12 4.821 4.821 0 0 0 1.227-1.788.204.204 0 0 0 0-.094.494.494 0 0 0 0-.077l-1.116-2.342h-.852c0 .664-.068 1.303-.051 1.993 0 .128.051.29.196.366.203.091.43.112.647.06.06 0 .12-.051.196 0v.06l-.366.673a.699.699 0 0 1-.35.093 1.235 1.235 0 0 1-1.166-.332c-.384-.52-.145-1.158-.18-1.78.021-.395.021-.79 0-1.184a1.474 1.474 0 0 1-.357 0l1.346-1.466h.077l-.043-.068zm-1.755.783v.852s-.153-.043-.247-.077a1.968 1.968 0 0 0-1.27-.306.417.417 0 0 0-.255.221.34.34 0 0 0 0 .264 3.51 3.51 0 0 0 1.15.58c.413.157.71.525.776.962a1.21 1.21 0 0 1-.537 1.244c-.427.23-.92.306-1.397.213a3.654 3.654 0 0 1-.895-.154v-.97c.094 0 .196.084.299.127.363.21.766.34 1.184.383a.494.494 0 0 0 .468-.213.426.426 0 0 0 0-.272c-.145-.307-.511-.35-.767-.494-.51-.196-1.2-.511-1.192-1.176a1.218 1.218 0 0 1 .715-1.218 2.896 2.896 0 0 1 1.389-.102c.178.03.354.07.528.119l.051.017zM21.62 34.38v.92h-.085a1.593 1.593 0 0 0-1.312-.179c-.502.188-.502.733-.52 1.193-.035.465.192.912.588 1.158.46.17.964.17 1.423 0h.043a.23.23 0 0 1 0 .051c-.145.256-.273.52-.392.793-.068.085-.239.076-.341.093a1.95 1.95 0 0 1-1.866-.622 2.394 2.394 0 0 1-.272-2.231 2.087 2.087 0 0 1 1.21-1.108 3.407 3.407 0 0 1 1.499 0l.025-.068zm1.704.077c-.18.738-.246 1.499-.196 2.257a4.634 4.634 0 0 0 .145 1.567h-1.244a7.07 7.07 0 0 0 .196-2.13 4.668 4.668 0 0 0-.17-1.703c.068-.06.247-.051.323-.051H23.4l-.077.06zm16.824-.154v.852a2.88 2.88 0 0 0-.4 0 .988.988 0 0 0-.682.358v.179a11.38 11.38 0 0 0 .154 2.555c-.18.069-.35 0-.52 0h-.792c.095-.292.15-.595.162-.903v-1.678a4.072 4.072 0 0 0-.188-1.158h1.15v.477c.136-.205.264-.528.545-.57.172-.03.348-.03.52 0l.051-.112zm15.384.605c.05.099.083.205.094.315v2.411c.023.218.06.434.11.647h-1.192c-.068 0-.068 0 0-.11a8.519 8.519 0 0 0 .154-2.087c0-.298.093-.673-.188-.852a.852.852 0 0 0-.852 0 .221.221 0 0 0-.06.187c-.063.932-.032 1.869.094 2.794h-1.26v-.05c.112-.377.166-.767.162-1.16a10.29 10.29 0 0 0-.111-2.487h1.124v.06c-.02.201-.02.404 0 .605 0 0 .077-.051.094-.077l.29-.494a.733.733 0 0 1 .426-.136c.458-.07.91.159 1.124.57l-.009-.136zm-37.472.136c.485.685.579 1.573.247 2.343a1.704 1.704 0 0 1-1.56 1.065 1.704 1.704 0 0 1-1.584-.613 2.334 2.334 0 0 1-.34-2.283c.127-.384.386-.71.732-.92a2.027 2.027 0 0 1 2.113.008l.392.4zm-1.1.154a.997.997 0 0 0-.655 0c-.337.18-.55.53-.554.911 0 .494-.077 1.057.281 1.397a.8.8 0 0 0 .852.085c.494-.23.562-.8.57-1.294a1.84 1.84 0 0 0-.153-.852.784.784 0 0 0-.349-.29l.009.043zm26.408-.051c.102.21.174.434.213.664v.656h-2.394c-.093.136 0 .375 0 .469.091.297.324.53.622.621.47.113.964.068 1.406-.127.119-.06.204-.12.323-.17.12-.052 0 .076 0 .11-.143.276-.271.56-.383.852a.775.775 0 0 1-.315.11 2.854 2.854 0 0 1-1.704-.136 2.164 2.164 0 0 1-.928-2.3c.044-.57.361-1.084.852-1.38A1.874 1.874 0 0 1 43 34.56c.173.14.315.313.417.511l-.051.077zm-1.78-.077a.741.741 0 0 0-.392.647l.05.052h1.38a.647.647 0 0 0-.11-.418.792.792 0 0 0-.937-.255l.009-.026zm10.333.026c.1.21.17.434.204.664v.656H49.73c-.093.136 0 .375 0 .468.088.297.318.53.614.622.47.113.963.068 1.405-.127.12-.06.205-.12.324-.17.12-.052 0 .076 0 .11-.145.276-.273.56-.383.852a.852.852 0 0 1-.316.11 2.862 2.862 0 0 1-1.703-.136 2.164 2.164 0 0 1-.929-2.3c.045-.57.362-1.084.852-1.38a1.874 1.874 0 0 1 1.934.043c.174.138.316.313.417.51l-.025.078zm-1.806-.077a.741.741 0 0 0-.384.639l.051.05h1.38a.63.63 0 0 0-.11-.417.784.784 0 0 0-.937-.255v-.017zm-23.682-.315c.289.335.416.78.35 1.218v1.635c-.001.268.033.534.102.793H25.87a.085.085 0 0 1-.06-.06v-.511h-.06c-.153.179-.28.375-.417.545-.192.076-.4.102-.604.077a1.346 1.346 0 0 1-.673-.23 1.022 1.022 0 0 1-.426-.912c.075-.449.41-.81.851-.92l1.287-.52c.076-.068.05-.289.05-.323a.426.426 0 0 0-.238-.366 1.457 1.457 0 0 0-1.047.093 4.31 4.31 0 0 0-.494.247h-.06c.06-.28.102-.613.179-.851h.076a3.927 3.927 0 0 1 1.653-.086c.2.026.39.109.545.239v-.068zm-.732 1.772c-.375 0-.767 0-.989.28a.8.8 0 0 0 0 .793c.189.209.48.292.75.213.068 0 .264-.068.307-.213v-.997a.102.102 0 0 0 0-.06.196.196 0 0 0-.068 0v-.016z"/>
        </g>
        <path fill="#FFF" d="M5 48h58v3H5zM5 54h58v3H5zM5 60h58v3H5zM5 66h34v3H5z"/>
    </g>
</svg>
