<svg width="512" height="512" viewBox="0 0 512 512" fill="none" xmlns="http://www.w3.org/2000/svg">
<circle cx="256" cy="256" r="256" fill="#F6F1E9"/>
<path fill-rule="evenodd" clip-rule="evenodd" d="M211.533 211.884C225.041 220.91 240.923 225.727 257.169 225.727C278.945 225.697 299.821 217.033 315.219 201.633C330.618 186.236 339.282 165.36 339.313 143.585C339.313 127.337 334.495 111.456 325.469 97.9463C316.443 84.4388 303.614 73.9111 288.604 67.6926C273.594 61.4761 257.078 59.8483 241.144 63.0189C225.209 66.1876 210.573 74.0112 199.085 85.5C187.597 96.987 179.774 111.624 176.604 127.558C173.434 143.492 175.061 160.01 181.278 175.019C187.496 190.029 198.024 202.857 211.533 211.884ZM239.83 117.635C244.962 114.203 250.996 112.374 257.169 112.374C265.443 112.385 273.376 115.676 279.227 121.527C285.077 127.377 288.369 135.31 288.379 143.585C288.379 149.756 286.549 155.791 283.119 160.924C279.69 166.056 274.815 170.056 269.113 172.418C263.41 174.781 257.134 175.398 251.08 174.193C245.026 172.99 239.465 170.018 235.1 165.652C230.736 161.288 227.763 155.727 226.559 149.673C225.355 143.619 225.973 137.344 228.335 131.641C230.697 125.938 234.697 121.064 239.83 117.635Z" fill="#A33662"/>
<path d="M330.469 278.658C349.9 298.088 360.815 324.442 360.815 351.92V428.261C360.815 428.745 360.624 429.208 360.283 429.547C359.942 429.889 359.48 430.08 358.998 430.08H311.661C311.179 430.08 310.716 429.889 310.375 429.547C310.035 429.208 309.843 428.745 309.843 428.261V351.92C309.471 338.203 303.761 325.171 293.926 315.599C284.092 306.029 270.911 300.673 257.188 300.673C243.466 300.673 230.284 306.029 220.45 315.599C210.616 325.171 204.906 338.203 204.534 351.92V393.03C204.534 393.306 204.471 393.578 204.351 393.827C204.23 394.074 204.055 394.291 203.838 394.461L156.462 429.693C156.315 429.806 156.153 429.895 155.981 429.957C155.842 430.006 155.697 430.038 155.548 430.054C155.216 430.084 154.882 430.021 154.583 429.872C154.285 429.723 154.034 429.493 153.861 429.209C153.687 428.924 153.596 428.596 153.6 428.261V351.92C153.6 324.442 164.516 298.088 183.946 278.658C203.376 259.229 229.729 248.312 257.208 248.312C284.686 248.312 311.039 259.229 330.469 278.658Z" fill="#A33662"/>
</svg>
