<?xml version="1.0" encoding="UTF-8"?>
<svg width="40px" height="36px" viewBox="0 0 40 36" version="1.1" xmlns="http://www.w3.org/2000/svg" xmlns:xlink="http://www.w3.org/1999/xlink">
    <title>Icon/Kalender</title>
    <g id="Ikoner" stroke="none" stroke-width="1" fill="none" fill-rule="evenodd">
        <g id="Ikoner-40x40" transform="translate(-537.000000, -632.000000)" fill="#00706E">
            <g id="Ikoner" transform="translate(105.000000, 190.000000)">
                <g id="Group" transform="translate(432.000000, 440.000000)">
                    <g id="Icon/Kalender" transform="translate(0.000000, 2.000000)">
                        <path d="M37,0.25 C38.4625318,0.25 39.6584043,1.3917046 39.7449812,2.83247767 L39.75,3 L39.75,33 C39.75,34.4625318 38.6082954,35.6584043 37.1675223,35.7449812 L37,35.75 L3,35.75 C1.53746816,35.75 0.341595721,34.6082954 0.255018794,33.1675223 L0.25,33 L0.25,3 C0.25,1.53746816 1.3917046,0.341595721 2.83247767,0.255018794 L3,0.25 L37,0.25 Z M1.75,6.25 L1.75,33 C1.75,33.6472087 2.24187466,34.1795339 2.87219476,34.2435464 L3,34.25 L37,34.25 C37.6472087,34.25 38.1795339,33.7581253 38.2435464,33.1278052 L38.25,33 L38.25,6.25 L1.75,6.25 Z M1.75,4.75 L38.25,4.75 L38.25,3 C38.25,2.35279131 37.7581253,1.8204661 37.1278052,1.75645361 L37,1.75 L3,1.75 C2.35279131,1.75 1.8204661,2.24187466 1.75645361,2.87219476 L1.75,3 L1.75,4.75 Z" id="Shape" fill-rule="nonzero"></path>
                        <g id="Group-14-Copy" transform="translate(7.000000, 11.000000)">
                            <path d="M15,16 L15,19 L12,19 L12,16 L15,16 Z M11,16 L11,19 L8,19 L8,16 L11,16 Z M7,16 L7,19 L4,19 L4,16 L7,16 Z M3,16 L3,19 L0,19 L0,16 L3,16 Z M19,12 L19,15 L16,15 L16,12 L19,12 Z M23,12 L23,15 L20,15 L20,12 L23,12 Z M27,12 L27,15 L24,15 L24,12 L27,12 Z M3,12 L3,15 L0,15 L0,12 L3,12 Z M15,12 L15,15 L12,15 L12,12 L15,12 Z M11,12 L11,15 L8,15 L8,12 L11,12 Z M7,12 L7,15 L4,15 L4,12 L7,12 Z M3,8 L3,11 L0,11 L0,8 L3,8 Z M7,8 L7,11 L4,11 L4,8 L7,8 Z M11,8 L11,11 L8,11 L8,8 L11,8 Z M15,8 L15,11 L12,11 L12,8 L15,8 Z M19,8 L19,11 L16,11 L16,8 L19,8 Z M23,8 L23,11 L20,11 L20,8 L23,8 Z M27,8 L27,11 L24,11 L24,8 L27,8 Z M3,4 L3,7 L0,7 L0,4 L3,4 Z M7,4 L7,7 L4,7 L4,4 L7,4 Z M15,4 L15,7 L12,7 L12,4 L15,4 Z M19,4 L19,7 L16,7 L16,4 L19,4 Z M23,4 L23,7 L20,7 L20,4 L23,4 Z M27,4 L27,7 L24,7 L24,4 L27,4 Z M11,4 L11,7 L8,7 L8,4 L11,4 Z M3,0 L3,3 L0,3 L0,0 L3,0 Z M7,0 L7,3 L4,3 L4,0 L7,0 Z M11,0 L11,3 L8,3 L8,0 L11,0 Z M15,0 L15,3 L12,3 L12,0 L15,0 Z M19,0 L19,3 L16,3 L16,0 L19,0 Z M23,0 L23,3 L20,3 L20,0 L23,0 Z M27,0 L27,3 L24,3 L24,0 L27,0 Z" id="Shape"></path>
                        </g>
                    </g>
                </g>
            </g>
        </g>
    </g>
</svg>