<?xml version="1.0" encoding="UTF-8"?>
<svg width="21" height="21" viewBox="0 0 21 21" fill="none" xmlns="http://www.w3.org/2000/svg">
  <path
    fill-rule="evenodd"
    clip-rule="evenodd"
    d="M3.89655 1.58533C3.67659 1.58533 3.5 1.76301 3.5 1.98006V15.6906C3.5 15.9076 3.67659 16.0853 3.89655 16.0853C4.17269 16.0853 4.39655 16.3092 4.39655 16.5853C4.39655 16.8615 4.17269 17.0853 3.89655 17.0853C3.12621 17.0853 2.5 16.4618 2.5 15.6906V1.98006C2.5 1.20882 3.12621 0.585327 3.89655 0.585327H13.6552C14.4255 0.585327 15.0517 1.20882 15.0517 1.98006C15.0517 2.25621 14.8279 2.48006 14.5517 2.48006C14.2756 2.48006 14.0517 2.25621 14.0517 1.98006C14.0517 1.76301 13.8751 1.58533 13.6552 1.58533H3.89655Z" fill="#00706E"/>
  <path
    fill-rule="evenodd"
    clip-rule="evenodd"
    d="M6.39655 4.08533C6.17659 4.08533 6 4.26301 6 4.48006V19.1906C6 19.4076 6.17659 19.5853 6.39655 19.5853H17.1552C17.3751 19.5853 17.5517 19.4076 17.5517 19.1906V4.48006C17.5517 4.26301 17.3751 4.08533 17.1552 4.08533H6.39655ZM5 4.48006C5 3.70882 5.62621 3.08533 6.39655 3.08533H17.1552C17.9255 3.08533 18.5517 3.70882 18.5517 4.48006V19.1906C18.5517 19.9618 17.9255 20.5853 17.1552 20.5853H6.39655C5.62621 20.5853 5 19.9618 5 19.1906V4.48006Z" fill="#00706E"/>
</svg>
