<?xml version="1.0" encoding="UTF-8"?>
<svg width="40px" height="40px" viewBox="0 0 40 40" version="1.1" xmlns="http://www.w3.org/2000/svg" xmlns:xlink="http://www.w3.org/1999/xlink">
    <title>Icon/Edit</title>
    <g id="Ikoner" stroke="none" stroke-width="1" fill="none" fill-rule="evenodd">
        <g id="Ikoner-40x40" transform="translate(-1180.000000, -1070.000000)" fill="#00706E" fill-rule="nonzero">
            <g id="Ikoner" transform="translate(105.000000, 190.000000)">
                <g id="Group" transform="translate(1075.000000, 880.000000)">
                    <g id="Icon/Edit" transform="translate(18.683663, 21.338138) rotate(-45.000000) translate(-18.683663, -21.338138) translate(-7.816337, 16.338138)">
                        <path d="M10.0723305,1.30130246 L10.0723305,8.38372442 L8.57233047,8.38372442 L8.57233047,1.30130246 L10.0723305,1.30130246 Z M45.4276695,1.30130246 L45.4276695,8.38372442 L43.9276695,8.38372442 L43.9276695,1.30130246 L45.4276695,1.30130246 Z M41.7060549,1.30130246 L41.7060549,8.38372442 L40.2060549,8.38372442 L40.2060549,1.30130246 L41.7060549,1.30130246 Z" id="Shape"></path>
                        <path d="M50,0.25 L7.65403011,0.25 L0.654030109,4.94736842 L7.65403011,9.64473684 L50,9.64473684 C51.5187831,9.64473684 52.75,8.4135199 52.75,6.89473684 L52.75,3 C52.75,1.48121694 51.5187831,0.25 50,0.25 Z M3.345,4.947 L8.109,1.75 L50,1.75 C50.6903559,1.75 51.25,2.30964406 51.25,3 L51.25,6.89473684 L51.2435464,7.02254208 C51.1795339,7.65286218 50.6472087,8.14473684 50,8.14473684 L8.111,8.144 L3.345,4.947 Z" id="Rectangle"></path>
                    </g>
                </g>
            </g>
        </g>
    </g>
</svg>