<?xml version="1.0" encoding="UTF-8"?>
<svg width="40px" height="29px" viewBox="0 0 40 29" version="1.1" xmlns="http://www.w3.org/2000/svg" xmlns:xlink="http://www.w3.org/1999/xlink">
    <title>Icon/Epost</title>
    <g id="Ikoner" stroke="none" stroke-width="1" fill="none" fill-rule="evenodd">
        <g id="Ikoner-40x40" transform="translate(-322.000000, -635.000000)" fill="#00706E" fill-rule="nonzero">
            <g id="Ikoner" transform="translate(105.000000, 190.000000)">
                <g id="Group" transform="translate(217.000000, 440.000000)">
                    <g id="Icon/Epost" transform="translate(0.000000, 5.000000)">
                        <path d="M38.432436,0.92971263 L39.3915023,2.08305204 L26.2274668,13.0287126 L38.9569961,26.9532182 L37.8498874,27.9653003 L25.0724668,13.9887126 L21.7142728,16.7826585 C20.7461806,17.5876814 19.3634409,17.6279326 18.3538839,16.903412 L18.1976963,16.7826585 L14.8944668,14.0347126 L2.16008488,27.9653003 L1.05297617,26.9532182 L13.7394668,13.0747126 L0.520466839,2.08305204 L1.47953316,0.92971263 L19.1567626,15.6293191 C19.5843337,15.9848684 20.1898494,16.0122184 20.6447966,15.7113689 L20.7552065,15.6293191 L38.432436,0.92971263 Z" id="Path"></path>
                        <path d="M36.9609707,0.25 L3.04900157,0.25 C1.53021851,0.25 0.299001569,1.48121694 0.299001569,3 L0.299001569,26.0222222 C0.299001569,27.5410053 1.53021851,28.7722222 3.04900157,28.7722222 L36.9609707,28.7722222 C38.4797537,28.7722222 39.7109707,27.5410053 39.7109707,26.0222222 L39.7109707,3 C39.7109707,1.48121694 38.4797537,0.25 36.9609707,0.25 Z M3.04900157,1.75 L36.9609707,1.75 C37.6513266,1.75 38.2109707,2.30964406 38.2109707,3 L38.2109707,26.0222222 C38.2109707,26.7125782 37.6513266,27.2722222 36.9609707,27.2722222 L3.04900157,27.2722222 C2.35864563,27.2722222 1.79900157,26.7125782 1.79900157,26.0222222 L1.79900157,3 C1.79900157,2.30964406 2.35864563,1.75 3.04900157,1.75 Z" id="Rectangle"></path>
                    </g>
                </g>
            </g>
        </g>
    </g>
</svg>