<svg xmlns="http://www.w3.org/2000/svg" viewBox="0 0 202.72 150"><defs><style>.cls-1,.cls-3{fill:#d8d8d8;}.cls-1{opacity:0.5;}.cls-2{fill:#a9b2bd;}.cls-4,.cls-6{fill:none;stroke-miterlimit:10;}.cls-4{stroke:#f1f1f1;}.cls-5{fill:#fff;}.cls-6{stroke:#fff;stroke-width:4px;}</style></defs><title>Asset 6</title><g id="Layer_2" data-name="Layer 2"><g id="Layer_1-2" data-name="Layer 1"><path class="cls-1" d="M24.67,9.53H188.23A14.48,14.48,0,0,1,202.72,24V150a0,0,0,0,1,0,0H10.19a0,0,0,0,1,0,0V24A14.48,14.48,0,0,1,24.67,9.53Z"/><path class="cls-2" d="M14.48,0H178a14.48,14.48,0,0,1,14.48,14.48v126a0,0,0,0,1,0,0H0a0,0,0,0,1,0,0v-126A14.48,14.48,0,0,1,14.48,0Z"/><circle class="cls-3" cx="13.21" cy="11.77" r="2.25"/><circle class="cls-3" cx="27.74" cy="11.77" r="2.25"/><circle class="cls-3" cx="20.47" cy="11.77" r="2.25"/><line class="cls-4" x1="0.64" y1="20.84" x2="191.55" y2="20.84"/><rect class="cls-5" x="35.69" y="6.45" width="126.82" height="10.23"/><path class="cls-5" d="M96.26,93.67a3.51,3.51,0,0,1,3.63,3.47,3.63,3.63,0,0,1-7.25,0A3.54,3.54,0,0,1,96.26,93.67Zm2-3H94.12l-.77-25.74H99Z"/><path class="cls-6" d="M90.36,49.77l-29,50.16a6.82,6.82,0,0,0,5.91,10.23h57.92a6.82,6.82,0,0,0,5.91-10.23l-29-50.16A6.82,6.82,0,0,0,90.36,49.77Z"/></g></g></svg>