<?xml version="1.0" encoding="UTF-8"?>
<svg width="38px" height="40px" viewBox="0 0 38 40" version="1.1" xmlns="http://www.w3.org/2000/svg" xmlns:xlink="http://www.w3.org/1999/xlink">
    <title>Icon/Hus</title>
    <g id="Ikoner" stroke="none" stroke-width="1" fill="none" fill-rule="evenodd">
        <g id="Ikoner-40x40" transform="translate(-323.000000, -1510.000000)" fill="#00706E" fill-rule="nonzero">
            <g id="Ikoner" transform="translate(105.000000, 190.000000)">
                <g id="Group" transform="translate(217.000000, 1320.000000)">
                    <g id="Icon/Hus" transform="translate(1.000000, 0.000000)">
                        <path d="M17.0749328,1.21182716 L1.22361302,16.7502919 C0.887851705,17.0794264 0.698655787,17.5298243 0.698655787,18 L0.704456986,18.1435272 C0.777463447,19.0428897 1.53048239,19.75 2.44865579,19.75 L4.25,19.75 L4.25,37.6896552 C4.25,38.8484582 5.26392238,39.75 6.47368421,39.75 L15.3289474,39.75 L15.3289474,28.137931 C15.3289474,27.8493671 15.6346068,27.5775862 16.0526316,27.5775862 L21.9473684,27.5775862 L22.0328552,27.5807802 C22.3977365,27.6051216 22.6710526,27.8656149 22.6710526,28.137931 L22.6710526,39.75 L31.5263158,39.75 L31.682933,39.7449402 C32.8223281,39.6711187 33.75,38.7980754 33.75,37.6896552 L33.75,19.75 L35.5513442,19.75 C36.0215199,19.75 36.4719178,19.5608041 36.8010523,19.2250428 C37.4776247,18.5348481 37.4665817,17.4268644 36.776387,16.7502919 L20.9250672,1.21182716 C19.8557311,0.163596423 18.1442689,0.163596423 17.0749328,1.21182716 Z M19.8750305,2.2830055 L35.7263503,17.8214703 C35.8249496,17.9181235 35.8265271,18.0764069 35.7298739,18.1750061 C35.6828547,18.222972 35.6185122,18.25 35.5513442,18.25 L32.25,18.25 L32.25,37.6896552 L32.2425669,37.7677467 C32.1934969,38.0253877 31.9063383,38.25 31.5263158,38.25 L24.171,38.25 L24.1710526,28.137931 C24.1710526,27.0356981 23.2499421,26.1578022 22.1064457,26.0827889 L21.9718644,26.0779863 L16.0526316,26.0775862 L15.8960144,26.082646 C14.7566193,26.1564675 13.8289474,27.0295108 13.8289474,28.137931 L13.828,38.25 L6.47368421,38.25 C6.05565941,38.25 5.75,37.9782191 5.75,37.6896552 L5.75,18.25 L2.44865579,18.25 C2.3105846,18.25 2.19865579,18.1380712 2.19865579,18 C2.19865579,17.932832 2.22568378,17.8684895 2.27364968,17.8214703 L18.1249695,2.2830055 C18.6110313,1.80653698 19.3889687,1.80653698 19.8750305,2.2830055 Z" id="Combined-Shape"></path>
                        <path d="M17.9081437,5.63575309 C18.4829689,5.1557048 19.3505398,5.12370158 19.9916991,5.56396643 L20.1254357,5.66554632 L30.5143246,15.4541335 C30.8157983,15.7381872 30.8299201,16.2128509 30.5458665,16.5143246 C30.2876359,16.7883916 29.8718763,16.8249777 29.5719161,16.615951 L29.4856754,16.5458665 L19.1303659,6.78707245 C19.0830147,6.7475285 18.982438,6.73961971 18.9309893,6.74809195 L18.9032135,6.75727922 L8.51432462,16.5458665 C8.21285091,16.8299201 7.7381872,16.8157983 7.45413355,16.5143246 C7.19590296,16.2402576 7.18409833,15.8230584 7.41058783,15.5360553 L7.48567538,15.4541335 L17.9081437,5.63575309 Z" id="Path-"></path>
                    </g>
                </g>
            </g>
        </g>
    </g>
</svg>