<svg xmlns="http://www.w3.org/2000/svg" width="48" height="48" fill="none" viewBox="0 0 48 48"><path fill="#00706e" fill-rule="evenodd" d="M48 9.833a3.6 3.6 0 0 0-3.6-3.6H3.6a3.6 3.6 0 0 0-3.6 3.6v28.8a3.6 3.6 0 0 0 3.6 3.6h40.8a3.6 3.6 0 0 0 3.6-3.6zm-3.6-1.2a1.2 1.2 0 0 1 1.2 1.2v28.8a1.2 1.2 0 0 1-1.2 1.2H3.6a1.2 1.2 0 0 1-1.2-1.2v-28.8a1.2 1.2 0 0 1 1.2-1.2z" clip-rule="evenodd"/><path fill="#00706e" fill-rule="evenodd" d="M28.307 18.01a.6.6 0 0 1 .6-.6h3.003a.6.6 0 0 1 .6.6v3.192h.9a.6.6 0 1 1 0 1.2h-1.5a.6.6 0 0 1-.6-.6V18.61h-2.403a.6.6 0 0 1-.6-.6" clip-rule="evenodd"/><path fill="#00706e" fill-rule="evenodd" d="M32.842 11.802c3.75 0 6.997 3.217 6.997 7.025 0 2.042-.83 4.116-2.072 5.68-1.23 1.551-2.988 2.744-4.925 2.744-2.16 0-4.09-1.097-5.457-2.656-1.367-1.558-2.237-3.646-2.237-5.768 0-4.004 3.452-7.025 7.694-7.025m5.197 7.025c0-2.814-2.44-5.225-5.197-5.225-3.422 0-5.894 2.381-5.894 5.225 0 1.644.682 3.319 1.79 4.581 1.107 1.262 2.574 2.043 4.104 2.043 1.188 0 2.48-.757 3.516-2.062 1.025-1.293 1.68-2.981 1.68-4.562" clip-rule="evenodd"/><path fill="#00706e" d="M39.056 31.495c-1.32-1.276-3.439-1.968-6.942-1.968-3.151 0-5.053.669-6.258 1.899-.863.88-1.315 1.75-2.114 4.524l-.22.76-.002.004c-.148.505-.278.915-.414 1.307a.9.9 0 1 1-1.7-.59c.124-.357.244-.738.387-1.223v-.002l.22-.755c.814-2.83 1.365-4.069 2.557-5.285 1.695-1.73 4.178-2.44 7.544-2.44 3.684 0 6.375.72 8.192 2.474 1.294 1.249 1.855 2.47 2.706 5.39l.18.614v.002c.148.498.266.872.389 1.224a.9.9 0 1 1-1.7.592c-.136-.39-.263-.794-.414-1.305l-.183-.623c-.832-2.855-1.286-3.69-2.228-4.6M20.4 16.133a2.7 2.7 0 0 0-2.7-2.7h-.9v2.7zM10.8 13.433v10.8h4.8v-10.8zM8.7 13.433a2.7 2.7 0 0 0-2.7 2.7h3.6v-2.7zM6 20.183v-2.7h3.6v2.7zM6 21.533a2.7 2.7 0 0 0 2.7 2.7h.9v-2.7zM20.4 17.483v2.7h-3.6v-2.7zM17.7 24.233a2.7 2.7 0 0 0 2.7-2.7h-3.6v2.7z"/></svg>