<?xml version="1.0" encoding="UTF-8"?>
<svg width="34px" height="40px" viewBox="0 0 34 40" version="1.1" xmlns="http://www.w3.org/2000/svg" xmlns:xlink="http://www.w3.org/1999/xlink">
    <title>Icon/L책s st채ngt</title>
    <g id="Ikoner" stroke="none" stroke-width="1" fill="none" fill-rule="evenodd">
        <g id="Ikoner-40x40" transform="translate(-329.000000, -1070.000000)" fill="#00706E">
            <g id="Ikoner" transform="translate(105.000000, 190.000000)">
                <g id="Group" transform="translate(221.000000, 880.000000)">
                    <g id="Icon/L책s-st채ngt" transform="translate(3.000000, 0.000000)">
                        <path d="M17,0.25 C21.7525469,0.25 25.610024,4.16771055 25.7462756,9.04094945 L25.75,9.30769231 L25.75,13 C25.75,13.4142136 25.4142136,13.75 25,13.75 C24.6203042,13.75 24.306509,13.4678461 24.2568466,13.1017706 L24.25,13 L24.25,9.30769231 C24.25,5.12749322 20.9975991,1.75 17,1.75 C13.0823529,1.75 9.88039411,4.99374449 9.75388282,9.05786421 L9.75,9.30769231 L9.75,13.7207031 C9.75,14.1349167 9.41421356,14.4707031 9,14.4707031 C8.62030423,14.4707031 8.30650904,14.1885492 8.25684662,13.8224737 L8.25,13.7207031 L8.25,9.30769231 C8.25,4.31146786 12.1610431,0.25 17,0.25 Z" id="Path" fill-rule="nonzero"></path>
                        <path d="M31.2325581,13.25 L2.76744186,13.25 C1.37709711,13.25 0.25,14.3770971 0.25,15.7674419 L0.25,37.2325581 C0.25,38.6229029 1.37709711,39.75 2.76744186,39.75 L31.2325581,39.75 C32.6229029,39.75 33.75,38.6229029 33.75,37.2325581 L33.75,15.7674419 C33.75,14.3770971 32.6229029,13.25 31.2325581,13.25 Z M2.76744186,14.75 L31.2325581,14.75 C31.7944758,14.75 32.25,15.2055242 32.25,15.7674419 L32.25,37.2325581 C32.25,37.7944758 31.7944758,38.25 31.2325581,38.25 L2.76744186,38.25 C2.20552424,38.25 1.75,37.7944758 1.75,37.2325581 L1.75,15.7674419 C1.75,15.2055242 2.20552424,14.75 2.76744186,14.75 Z" id="Rectangle" fill-rule="nonzero"></path>
                        <g id="Group-4" transform="translate(15.000000, 22.000000)">
                            <rect id="Rectangle" x="0" y="0" width="4" height="10" rx="2"></rect>
                        </g>
                    </g>
                </g>
            </g>
        </g>
    </g>
</svg>