<?xml version="1.0" encoding="UTF-8"?>
<svg width="36px" height="38px" viewBox="0 0 36 38" version="1.1" xmlns="http://www.w3.org/2000/svg" xmlns:xlink="http://www.w3.org/1999/xlink">
    <title>Icon/Logg</title>
    <g id="Ikoner" stroke="none" stroke-width="1" fill="none" fill-rule="evenodd">
        <g id="Ikoner-40x40" transform="translate(-972.000000, -1291.000000)" fill="#00706E" fill-rule="nonzero">
            <g id="Ikoner" transform="translate(105.000000, 190.000000)">
                <g id="Group" transform="translate(865.000000, 1100.000000)">
                    <g id="Icon/Logg-låst" transform="translate(2.000000, 1.000000)">
                        <path d="M24,0.25 C25.4625318,0.25 26.6584043,1.3917046 26.7449812,2.83239675 L26.75,2.99990939 L26.7508057,9.6688955 C26.7508057,10.0831091 26.4151099,10.4189361 26.0008964,10.4189861 C25.6212006,10.419032 25.3073713,10.136916 25.2576647,9.77084646 L25.2508058,9.66907673 L25.25,3 C25.25,2.35279131 24.7581253,1.8204661 24.1278052,1.75645361 L24,1.75 L3,1.75 C2.35279131,1.75 1.8204661,2.24187466 1.75645361,2.87219476 L1.75,3 L1.75,35 C1.75,35.6472087 2.24187466,36.1795339 2.87219476,36.2435464 L3,36.25 L24,36.25 C24.6472087,36.25 25.1795339,35.7581253 25.2435464,35.1277324 L25.25,34.9999116 L25.2508058,28.1660903 C25.2508546,27.7518767 25.5866806,27.4161299 26.0008942,27.4161787 C26.3805899,27.4162235 26.6943519,27.6984144 26.7439711,28.0644958 L26.7508057,28.1662672 L26.75,35 C26.75,36.4625318 25.6082954,37.6584043 24.1675223,37.7449812 L24,37.75 L3,37.75 C1.53746816,37.75 0.341595721,36.6082954 0.255018794,35.1675223 L0.25,35 L0.25,3 C0.25,1.53746816 1.3917046,0.341595721 2.83247767,0.255018794 L3,0.25 L24,0.25 Z M21.8168498,11.7298535 C26.5945847,11.7298535 30.9181911,13.9919844 34.7580676,18.4632766 L35.0602102,18.8208621 L35.4589042,19.3003663 L35.0602102,19.7798705 C31.1454348,24.4881221 26.7203145,26.8708791 21.8168498,26.8708791 C17.039115,26.8708791 12.7155086,24.6087482 8.87563203,20.137456 L8.5734894,19.7798705 L8.17479544,19.3003663 L8.5734894,18.8208621 C12.4882648,14.1126105 16.9133851,11.7298535 21.8168498,11.7298535 Z M21.8168498,13.2298535 C17.7652303,13.2298535 14.0530359,15.0450875 10.655686,18.7195411 L10.3381061,19.0694694 L10.135,19.3 L10.3381061,19.5312632 C13.6164582,23.2104698 17.1906833,25.1369196 21.0832563,25.3508299 L21.4491183,25.3658681 L21.8168498,25.3708791 C25.8684694,25.3708791 29.5806638,23.5556451 32.9780136,19.8811915 L33.2955935,19.5312632 L33.498,19.3 L33.2955935,19.0694694 C30.0172415,15.3902628 26.4430164,13.463813 22.5504434,13.2499027 L22.1845813,13.2348645 L21.8168498,13.2298535 Z" id="Shape"></path>
                        <g id="öga" transform="translate(8.000000, 11.000000)">
                            <path d="M13.8168498,2.67857143 C10.7120182,2.67857143 8.19505495,5.19553473 8.19505495,8.3003663 C8.19505495,11.4051979 10.7120182,13.9221612 13.8168498,13.9221612 C16.9216814,13.9221612 19.4386447,11.4051979 19.4386447,8.3003663 C19.4386447,5.19553473 16.9216814,2.67857143 13.8168498,2.67857143 Z M13.8168498,4.17857143 C16.0932543,4.17857143 17.9386447,6.02396185 17.9386447,8.3003663 C17.9386447,10.5767707 16.0932543,12.4221612 13.8168498,12.4221612 C11.5404454,12.4221612 9.69505495,10.5767707 9.69505495,8.3003663 C9.69505495,6.02396185 11.5404454,4.17857143 13.8168498,4.17857143 Z" id="Oval-Copy-3"></path>
                        </g>
                    </g>
                </g>
            </g>
        </g>
    </g>
</svg>