<?xml version="1.0" encoding="UTF-8"?>
<svg width="32px" height="40px" viewBox="0 0 32 40" version="1.1" xmlns="http://www.w3.org/2000/svg" xmlns:xlink="http://www.w3.org/1999/xlink">
    <title>Icon/Användare</title>
    <g id="Ikoner" stroke="none" stroke-width="1" fill="none" fill-rule="evenodd">
        <g id="Ikoner-40x40" transform="translate(-117.000000, -190.000000)" fill="#00706E" fill-rule="nonzero">
            <g id="Ikoner" transform="translate(105.000000, 190.000000)">
                <g id="Group" transform="translate(8.000000, 0.000000)">
                    <g id="Icon/Användare-" transform="translate(3.000000, 0.000000)">
                        <path d="M16.3452341,0.945214634 C11.089895,0.945214634 6.5623561,5.47148641 6.5623561,10.7688732 C6.5623561,16.6352607 11.3497864,22.6667756 16.3452341,22.6667756 C22.1053733,22.6667756 27.1606,16.90521 27.1606,10.7688732 C27.1606,5.24937249 22.4027788,0.945214634 16.3452341,0.945214634 Z M16.3452341,2.44521463 C21.6060151,2.44521463 25.6606,6.11319047 25.6606,10.7688732 C25.6606,16.1172557 21.2301257,21.1667756 16.3452341,21.1667756 C12.2641907,21.1667756 8.0623561,15.8730321 8.0623561,10.7688732 C8.0623561,6.30000754 11.9182282,2.44521463 16.3452341,2.44521463 Z" id="Stroke-1"></path>
                        <path d="M16.3966732,8.80926829 C16.7763689,8.80926829 17.0901641,9.09142217 17.1398266,9.45749774 L17.1466732,9.55926829 L17.146,14.426 L18.6201366,14.4267805 C18.9998324,14.4267805 19.3136275,14.7089344 19.36329,15.0750099 L19.3701366,15.1767805 C19.3701366,15.5564763 19.0879827,15.8702714 18.7219071,15.9199339 L18.6201366,15.9267805 L16.3966732,15.9267805 C16.0169774,15.9267805 15.7031822,15.6446266 15.6535198,15.278551 L15.6466732,15.1767805 L15.646,10.309 L11.9478927,10.3092683 C11.5681969,10.3092683 11.2544017,10.0271144 11.2047393,9.66103885 L11.1978927,9.55926829 C11.1978927,9.17957253 11.4800466,8.86577733 11.8461221,8.81611491 L11.9478927,8.80926829 L16.3966732,8.80926829 Z" id="Stroke-3"></path>
                        <path d="M17.4231366,24.5376537 C11.9234858,24.5376537 8.1796008,25.6362953 5.6922483,28.037364 C4.51252859,29.1761533 3.76192937,30.2794888 3.01334183,32.1904323 L2.80891058,32.7322554 L2.60265372,33.3179256 L2.3926459,33.9512434 L2.17696175,34.6360091 L1.95367592,35.3760232 L1.57022829,36.6821794 L1.25830981,37.7024527 L1.1203997,38.1280184 L0.986616192,38.5215787 C0.816744618,39.0090363 1.17863539,39.5183854 1.6948439,39.5183854 L32.0281122,39.5183854 C32.5438072,39.5183854 32.9056517,39.0099753 32.7367393,38.522728 L32.5494438,37.9654943 L32.3578492,37.3604002 L32.1535243,36.680809 L31.7142803,35.1673285 L31.4934551,34.427329 L31.2800458,33.7425344 L31.0721891,33.1091384 L30.8680223,32.5233344 L30.6656821,31.9813159 C29.9585145,30.1564349 29.2506792,29.0661687 28.1827266,27.9761026 C25.8730756,25.6186039 22.4340972,24.5376537 17.4231366,24.5376537 Z M17.4231366,26.0376537 C22.0670055,26.0376537 25.1255875,26.9990365 27.1112514,29.0258363 C28.0246238,29.9581214 28.6382564,30.8969765 29.2714391,32.5318585 L29.4622997,33.0438934 L29.6562491,33.6018266 L29.855203,34.209795 L30.061077,34.8719352 L30.3870543,35.9757668 L30.7137293,37.1015022 L30.8738347,37.6370456 L30.991,38.018 L2.731,38.018 L3.00875083,37.1072038 L3.39062752,35.8062465 L3.60725462,35.0871569 L3.81480511,34.4263319 C3.84875096,34.3208201 3.88240148,34.2175636 3.91579811,34.1164763 L4.11346251,33.5352942 C4.14600926,33.4425392 4.17838498,33.3517812 4.21063109,33.2629338 L4.40288397,32.7520897 C4.49856423,32.507443 4.59382381,32.2784422 4.68978134,32.0627612 L4.88295848,31.6484697 C5.40234688,30.5873756 5.96280111,29.8610436 6.73402319,29.1165791 C8.89602475,27.0295752 12.2762353,26.0376537 17.4231366,26.0376537 Z" id="Stroke-5"></path>
                        <path d="M24.7351007,33.5757415 C25.1048861,33.4895577 25.4745346,33.6931215 25.605993,34.0383698 L25.635761,34.13593 L26.5190292,37.9257349 C26.6130479,38.3291371 26.362243,38.7323764 25.9588407,38.8263951 C25.5890554,38.9125789 25.2194069,38.709015 25.0879484,38.3637668 L25.0581805,38.2662066 L24.1749122,34.4764017 C24.0808936,34.0729995 24.3316985,33.6697602 24.7351007,33.5757415 Z" id="Stroke-7"></path>
                        <path d="M8.08663905,34.13593 C8.18065772,33.7325278 8.58389703,33.4817228 8.98729927,33.5757415 C9.35708466,33.6619253 9.59864592,34.0079403 9.56391986,34.3757334 L9.54748778,34.4764017 L8.66421949,38.2662066 C8.57020082,38.6696088 8.1669615,38.9204138 7.76355926,38.8263951 C7.39377388,38.7402113 7.15221262,38.3941963 7.18693867,38.0264032 L7.20337076,37.9257349 L8.08663905,34.13593 Z" id="Stroke-9"></path>
                    </g>
                </g>
            </g>
        </g>
    </g>
</svg>