<?xml version="1.0" encoding="UTF-8"?>
<svg width="40px" height="34px" viewBox="0 0 40 34" version="1.1" xmlns="http://www.w3.org/2000/svg" xmlns:xlink="http://www.w3.org/1999/xlink">
    <title>Icon/Alert</title>
    <g id="Ikoner" stroke="none" stroke-width="1" fill="none" fill-rule="evenodd">
        <g id="Ikoner-40x40" transform="translate(-543.000000, -1733.000000)" fill="#E81313" fill-rule="nonzero">
            <g id="Ikoner" transform="translate(105.000000, 190.000000)">
                <g id="Group" transform="translate(438.000000, 1542.000000)">
                    <g id="Icon/Alert" transform="translate(0.000000, 1.800000)">
                        <g id="Icon/Varning">
                            <path d="M18.0558627,1.05619494 L0.341836895,28.9963667 C0.117860412,29.3496428 0,29.7564313 0,30.1704405 C0,31.3852272 1.00251758,32.4 2.2858983,32.4 L37.71395,32.4 C38.1672433,32.4 38.6083964,32.2690389 38.9824445,32.0260596 C40.0130177,31.3566056 40.3026404,30.0131342 39.6580114,28.9963667 L21.9439855,1.05619494 C21.7722498,0.785317667 21.5423121,0.552569101 21.2684186,0.374649605 C20.185123,-0.329052494 18.7303894,-0.00772986273 18.0558627,1.05619494 Z M20.3802432,1.48522916 C20.4757662,1.54728032 20.5597768,1.63231788 20.6251136,1.735373 L38.3391394,29.6755448 C38.605125,30.0950815 38.4826539,30.6631876 38.0942691,30.91548 C37.976345,30.9920828 37.8452226,31.0310079 37.71395,31.0310079 L2.2858983,31.0310079 C1.88325976,31.0310079 1.51898868,30.6622838 1.51898868,30.1704405 C1.51898868,29.9927378 1.56896281,29.820255 1.66070884,29.6755448 L19.3747347,1.735373 C19.5911486,1.39402531 19.9736604,1.28507365 20.2944551,1.43723512 L20.3802432,1.48522916 Z" id="Rectangle-Copy-3"></path>
                        </g>
                        <path d="M20.3860864,21.2674252 L21.9292035,10.9628405 L21.9292035,10.9628405 C21.9764012,10.5863813 22,10.2930934 22,10.0829767 C22,9.42636187 21.8082596,8.93171206 21.4247788,8.59902724 C21.0412979,8.26634241 20.5722714,8.1 20.0176991,8.1 C19.4631268,8.1 18.9882006,8.26634241 18.5929204,8.59902724 C18.1976401,8.93171206 18,9.37383268 18,9.92538911 C18,10.1530156 18.0353982,10.4988327 18.1061947,10.9628405 L19.6149968,21.2672648 C19.6429762,21.4583513 19.806876,21.6 20,21.6 C20.1932785,21.6 20.3574621,21.4585723 20.3860864,21.2674252 Z M20,27.9 C20.5525526,27.9 21.024024,27.7235294 21.4144144,27.3705882 C21.8048048,27.0176471 22,26.5914027 22,26.0918552 C22,25.6031674 21.8048048,25.1823529 21.4144144,24.8294118 C21.024024,24.4764706 20.5525526,24.3 20,24.3 C19.4474474,24.3 18.975976,24.4764706 18.5855856,24.8294118 C18.1951952,25.1823529 18,25.6031674 18,26.0918552 C18,26.5914027 18.1951952,27.0176471 18.5855856,27.3705882 C18.975976,27.7235294 19.4474474,27.9 20,27.9 Z" id="!"></path>
                    </g>
                </g>
            </g>
        </g>
    </g>
</svg>