<svg focusable="false" aria-hidden="true" xmlns="http://www.w3.org/2000/svg" width="31" height="27" viewBox="0 0 31 27">
  <g fill="#FFF" fill-rule="nonzero">
    <path d="M4.85 7.895H6.879999999999999V9.924999999999999H4.85z" transform="translate(-735 -949) translate(735.5 949)" />
    <path
        d="M2.876.744h24.248c1.177 0 2.132.955 2.132 2.132v21.203c0 1.177-.955 2.132-2.132 2.132H2.876c-1.177 0-2.132-.955-2.132-2.132V2.876C.744 1.699 1.7.744 2.876.744zm0 1.106c-.567 0-1.026.46-1.026 1.026v21.203c0 .567.46 1.026 1.026 1.026h24.248c.567 0 1.026-.46 1.026-1.026V2.876c0-.567-.46-1.026-1.026-1.026H2.876z"
        transform="translate(-735 -949) translate(735.5 949)"
    />
    <path
        d="M1.573 5.047L29.155 5.047 29.155 3.941 1.573 3.941zM7.895 7.895H9.924999999999999V9.924999999999999H7.895zM10.94 7.895H12.969999999999999V9.924999999999999H10.94zM13.985 7.895H16.015V9.924999999999999H13.985zM17.03 7.895H19.060000000000002V9.924999999999999H17.03zM20.075 7.895H22.105V9.924999999999999H20.075zM23.12 7.895H25.150000000000002V9.924999999999999H23.12zM4.85 10.94H6.879999999999999V12.969999999999999H4.85zM7.895 10.94H9.924999999999999V12.969999999999999H7.895zM10.94 10.94H12.969999999999999V12.969999999999999H10.94zM13.985 10.94H16.015V12.969999999999999H13.985zM17.03 10.94H19.060000000000002V12.969999999999999H17.03zM20.075 10.94H22.105V12.969999999999999H20.075zM23.12 10.94H25.150000000000002V12.969999999999999H23.12zM4.85 13.985H6.879999999999999V16.015H4.85zM7.895 13.985H9.924999999999999V16.015H7.895zM10.94 13.985H12.969999999999999V16.015H10.94zM13.985 13.985H16.015V16.015H13.985zM17.03 13.985H19.060000000000002V16.015H17.03zM20.075 13.985H22.105V16.015H20.075zM23.12 13.985H25.150000000000002V16.015H23.12zM23.12 17.03H25.150000000000002V19.060000000000002H23.12zM4.85 17.03H6.879999999999999V19.060000000000002H4.85zM7.895 17.03H9.924999999999999V19.060000000000002H7.895zM10.94 17.03H12.969999999999999V19.060000000000002H10.94zM4.85 20.075H6.879999999999999V22.105H4.85zM7.895 20.075H9.924999999999999V22.105H7.895zM10.94 20.075H12.969999999999999V22.105H10.94zM13.985 17.03H16.015V19.060000000000002H13.985zM17.03 17.03H19.060000000000002V19.060000000000002H17.03zM20.075 17.03H22.105V19.060000000000002H20.075z"
        transform="translate(-735 -949) translate(735.5 949)"
    />
  </g>
</svg>