<svg focusable="false" aria-hidden="true" xmlns="http://www.w3.org/2000/svg" width="15" height="15" viewBox="0 0 15 15">
  <g fill="#FFF" fill-rule="nonzero" stroke="#FFF" stroke-width=".5">
    <path d="M12.385 7.513c0-.211.172-.383.384-.383.211 0 .383.172.383.383 0 3.11-2.53 5.639-5.639 5.639-3.109 0-5.638-2.53-5.638-5.639 0-3.109 2.529-5.638 5.638-5.638.212 0 .384.172.384.383 0 .212-.172.383-.384.383-2.686 0-4.872 2.186-4.872 4.872 0 2.687 2.186 4.872 4.872 4.872 2.687 0 4.872-2.185 4.872-4.872z" transform="translate(-743 -457) translate(743 457)"/>
    <g>
      <path d="M6.64.11l1.313 1.312c.146.147.146.384 0 .53L6.64 3.266c-.146.147-.384.147-.53 0-.147-.146-.147-.384 0-.53l.672-.673H.536c-.207 0-.375-.167-.375-.374 0-.208.168-.375.375-.375l6.246-.001L6.11.64c-.147-.146-.147-.384 0-.53.146-.147.384-.147.53 0z" transform="translate(-743 -457) translate(743 457) rotate(-45 11.222 -3.333)"/>
    </g>
  </g>
</svg>