<?xml version="1.0" encoding="UTF-8"?>
<svg width="35px" height="40px" viewBox="0 0 35 40" version="1.1" xmlns="http://www.w3.org/2000/svg" xmlns:xlink="http://www.w3.org/1999/xlink">
    <title>Icon/Övriga filformat</title>
    <g id="Ikoner" stroke="none" stroke-width="1" fill="none" fill-rule="evenodd">
        <g id="Ikoner-40x40" transform="translate(-1183.000000, -1950.000000)" fill="#00706E">
            <g id="Ikoner" transform="translate(105.000000, 190.000000)">
                <g id="Group" transform="translate(1075.000000, 1760.000000)">
                    <g id="Icon/Övriga-filformat" transform="translate(3.000000, 0.000000)">
                        <path d="M32,0.25 C33.4625318,0.25 34.6584043,1.3917046 34.7449812,2.83247767 L34.75,3 L34.75,37 C34.75,38.4625318 33.6082954,39.6584043 32.1675223,39.7449812 L32,39.75 L8,39.75 C6.53746816,39.75 5.34159572,38.6082954 5.25501879,37.1675223 L5.25,37 L5.25,33 C5.25,32.5857864 5.58578644,32.25 6,32.25 C6.37969577,32.25 6.69349096,32.5321539 6.74315338,32.8982294 L6.75,33 L6.75,37 C6.75,37.6472087 7.24187466,38.1795339 7.87219476,38.2435464 L8,38.25 L32,38.25 C32.6472087,38.25 33.1795339,37.7581253 33.2435464,37.1278052 L33.25,37 L33.25,3 C33.25,2.35279131 32.7581253,1.8204661 32.1278052,1.75645361 L32,1.75 L8,1.75 C7.35279131,1.75 6.8204661,2.24187466 6.75645361,2.87219476 L6.75,3 L6.75,7 C6.75,7.41421356 6.41421356,7.75 6,7.75 C5.62030423,7.75 5.30650904,7.46784612 5.25684662,7.10177056 L5.25,7 L5.25,3 C5.25,1.53746816 6.3917046,0.341595721 7.83247767,0.255018794 L8,0.25 L32,0.25 Z" id="Path" fill-rule="nonzero"></path>
                        <rect id="Rectangle" transform="translate(15.000000, 20.000000) rotate(-90.000000) translate(-15.000000, -20.000000) " x="5" y="5" width="20" height="30" rx="2"></rect>
                    </g>
                </g>
            </g>
        </g>
    </g>
</svg>