<?xml version="1.0" encoding="UTF-8"?>
<svg width="40px" height="40px" viewBox="0 0 40 40" version="1.1" xmlns="http://www.w3.org/2000/svg" xmlns:xlink="http://www.w3.org/1999/xlink">
    <title>Icon/Uppmärksamma</title>
    <g id="Ikoner" stroke="none" stroke-width="1" fill="none" fill-rule="evenodd">
        <g id="Ikoner-40x40" transform="translate(-328.000000, -1730.000000)" fill="#6F5E4D" fill-rule="nonzero">
            <g id="Ikoner" transform="translate(105.000000, 190.000000)">
                <g id="Icon/Uppmärksamma" transform="translate(223.000000, 1540.000000)">
                    <g id="Icon/Alert">
                        <path d="M20,0.25 C9.09237619,0.25 0.25,9.09237619 0.25,20 C0.25,30.9076238 9.09237619,39.75 20,39.75 C30.9076238,39.75 39.75,30.9076238 39.75,20 C39.75,9.09237619 30.9076238,0.25 20,0.25 Z M20,1.75 C30.0791967,1.75 38.25,9.92080332 38.25,20 C38.25,30.0791967 30.0791967,38.25 20,38.25 C9.92080332,38.25 1.75,30.0791967 1.75,20 C1.75,9.92080332 9.92080332,1.75 20,1.75 Z" id="Oval"></path>
                    </g>
                    <path d="M20.3811998,23.66673 L21.9292035,12.1809339 L21.9292035,12.1809339 C21.9764012,11.7626459 22,11.4367704 22,11.2033074 C22,10.4737354 21.8082596,9.92412451 21.4247788,9.55447471 C21.0412979,9.1848249 20.5722714,9 20.0176991,9 C19.4631268,9 18.9882006,9.1848249 18.5929204,9.55447471 C18.1976401,9.92412451 18,10.4153696 18,11.0282101 C18,11.2811284 18.0353982,11.6653696 18.1061947,12.1809339 L19.6197811,23.6665993 C19.6449232,23.8573868 19.807563,24 20,24 C20.1925785,24 20.3554775,23.8575829 20.3811998,23.66673 Z M20,31 C20.5525526,31 21.024024,30.8039216 21.4144144,30.4117647 C21.8048048,30.0196078 22,29.546003 22,28.9909502 C22,28.4479638 21.8048048,27.9803922 21.4144144,27.5882353 C21.024024,27.1960784 20.5525526,27 20,27 C19.4474474,27 18.975976,27.1960784 18.5855856,27.5882353 C18.1951952,27.9803922 18,28.4479638 18,28.9909502 C18,29.546003 18.1951952,30.0196078 18.5855856,30.4117647 C18.975976,30.8039216 19.4474474,31 20,31 Z" id="!"></path>
                </g>
            </g>
        </g>
    </g>
</svg>