<?xml version="1.0" encoding="UTF-8"?>
<svg width="40px" height="40px" viewBox="0 0 40 40" version="1.1" xmlns="http://www.w3.org/2000/svg" xmlns:xlink="http://www.w3.org/1999/xlink">
    <title>Icon/Information</title>
    <g id="Ikoner" stroke="none" stroke-width="1" fill="none" fill-rule="evenodd">
        <g id="Ikoner-40x40" transform="translate(-114.000000, -1730.000000)" fill="#6F5E4D" fill-rule="nonzero">
            <g id="Ikoner" transform="translate(105.000000, 190.000000)">
                <g id="Icon/Information" transform="translate(9.000000, 1540.000000)">
                    <path d="M20,0.25 C9.09237619,0.25 0.25,9.09237619 0.25,20 C0.25,30.9076238 9.09237619,39.75 20,39.75 C30.9076238,39.75 39.75,30.9076238 39.75,20 C39.75,9.09237619 30.9076238,0.25 20,0.25 Z M20,1.75 C30.0791967,1.75 38.25,9.92080332 38.25,20 C38.25,30.0791967 30.0791967,38.25 20,38.25 C9.92080332,38.25 1.75,30.0791967 1.75,20 C1.75,9.92080332 9.92080332,1.75 20,1.75 Z" id="Oval-Copy-12"></path>
                    <g id="i" transform="translate(16.000000, 9.000000)">
                        <path d="M3.45345573,4 C4.00517987,4 4.4748022,3.80295567 4.86232273,3.408867 C5.24984325,3.01477833 5.44360352,2.54187192 5.44360352,1.99014778 C5.44360352,1.43842365 5.24984325,0.968801314 4.86232273,0.581280788 C4.4748022,0.193760263 4.00517987,0 3.45345573,0 C2.88859531,0 2.41240483,0.193760263 2.0248843,0.581280788 C1.63736378,0.968801314 1.44360352,1.43842365 1.44360352,1.99014778 C1.44360352,2.54187192 1.64064785,3.01477833 2.03473652,3.408867 C2.42882519,3.80295567 2.90173159,4 3.45345573,4 Z" id="Path"></path>
                        <path d="M8,21.6796875 C8,21.5024771 7.86400065,21.3549291 7.68737672,21.3405234 C7.02850284,21.2867635 6.6172473,21.2123182 6.4536101,21.1171875 C6.17140115,20.953125 5.95830459,20.7041016 5.81432042,20.3701172 C5.67033626,20.0361328 5.59834418,19.3652344 5.59834418,18.3574219 L5.5350588,7.98998962 C5.53170212,7.44009743 5.08497985,6.99609375 4.53507743,6.99609375 L0.512695313,6.99609375 C0.22954151,6.99609375 -3.46763398e-17,7.22563526 0,7.50878906 C3.46763398e-17,7.79194286 0.22954151,8.02148438 0.512695313,8.02148438 L1.633129,8.02148438 C2.16408555,8.0215263 2.60246682,8.43649274 2.6315825,8.96665039 C2.69731395,10.1635323 2.73017968,11.22543 2.73017968,12.1523438 L2.73017968,18.3574219 C2.73017968,19.3535156 2.65242823,20.0273438 2.49692534,20.3789063 C2.34142244,20.7304688 2.13120557,20.9824219 1.86627471,21.1347656 C1.71223,21.2233463 1.29823848,21.2926124 0.624300161,21.342564 C0.447783287,21.3556539 0.311245763,21.5026859 0.311245763,21.6796875 C0.311245763,21.8544338 0.452905666,21.9960938 0.627652013,21.9960938 L7.68359375,21.9960938 C7.8583401,21.9960938 8,21.8544338 8,21.6796875 Z" id="Path"></path>
                    </g>
                </g>
            </g>
        </g>
    </g>
</svg>