<?xml version="1.0" encoding="UTF-8"?>
<svg width="40px" height="40px" viewBox="0 0 40 40" version="1.1" xmlns="http://www.w3.org/2000/svg" xmlns:xlink="http://www.w3.org/1999/xlink">
    <title>Icon/Lista</title>
    <g id="Ikoner" stroke="none" stroke-width="1" fill="none" fill-rule="evenodd">
        <g id="Ikoner-40x40" transform="translate(-540.000000, -1290.000000)" fill="#00706E">
            <g id="Ikoner" transform="translate(105.000000, 190.000000)">
                <g id="Icon/Lista" transform="translate(435.000000, 1100.000000)">
                    <path d="M37,0.25 L3,0.25 C1.48121694,0.25 0.25,1.48121694 0.25,3 L0.25,37 C0.25,38.5187831 1.48121694,39.75 3,39.75 L37,39.75 C38.5187831,39.75 39.75,38.5187831 39.75,37 L39.75,3 C39.75,1.48121694 38.5187831,0.25 37,0.25 Z M3,1.75 L37,1.75 C37.6903559,1.75 38.25,2.30964406 38.25,3 L38.25,37 C38.25,37.6903559 37.6903559,38.25 37,38.25 L3,38.25 C2.30964406,38.25 1.75,37.6903559 1.75,37 L1.75,3 C1.75,2.30964406 2.30964406,1.75 3,1.75 Z" id="Rectangle-Copy-10" fill-rule="nonzero"></path>
                    <path d="M31.96,28.9406345 C32.5122847,28.9406345 32.96,29.3883497 32.96,29.9406345 C32.96,30.4534703 32.5739598,30.8761416 32.0766211,30.9339068 L31.96,30.9406345 L14.7462069,30.9406345 C14.1939221,30.9406345 13.7462069,30.4929192 13.7462069,29.9406345 C13.7462069,29.4277986 14.1322471,29.0051273 14.6295858,28.9473622 L14.7462069,28.9406345 L31.96,28.9406345 Z M31.96,22.0574345 C32.5122847,22.0574345 32.96,22.5051497 32.96,23.0574345 C32.96,23.5702703 32.5739598,23.9929416 32.0766211,24.0507068 L31.96,24.0574345 L14.7462069,24.0574345 C14.1939221,24.0574345 13.7462069,23.6097192 13.7462069,23.0574345 C13.7462069,22.5445986 14.1322471,22.1219273 14.6295858,22.0641622 L14.7462069,22.0574345 L31.96,22.0574345 Z M31.96,15.1742345 C32.5122847,15.1742345 32.96,15.6219497 32.96,16.1742345 C32.96,16.6870703 32.5739598,17.1097416 32.0766211,17.1675068 L31.96,17.1742345 L14.7462069,17.1742345 C14.1939221,17.1742345 13.7462069,16.7265192 13.7462069,16.1742345 C13.7462069,15.6613986 14.1322471,15.2387273 14.6295858,15.1809622 L14.7462069,15.1742345 L31.96,15.1742345 Z M31.96,8.29103448 C32.5122847,8.29103448 32.96,8.73874973 32.96,9.29103448 C32.96,9.80387032 32.5739598,10.2265416 32.0766211,10.2843068 L31.96,10.2910345 L14.7462069,10.2910345 C14.1939221,10.2910345 13.7462069,9.84331923 13.7462069,9.29103448 C13.7462069,8.77819864 14.1322471,8.35552732 14.6295858,8.29776221 L14.7462069,8.29103448 L31.96,8.29103448 Z" id="Shape" fill-rule="nonzero"></path>
                    <path d="M8.29103448,28.6486069 C9.00405314,28.6486069 9.58206897,29.2266227 9.58206897,29.9396414 C9.58206897,30.65266 9.00405314,31.2306759 8.29103448,31.2306759 C7.57801583,31.2306759 7,30.65266 7,29.9396414 C7,29.2266227 7.57801583,28.6486069 8.29103448,28.6486069 Z M8.29103448,21.7657379 C9.00405314,21.7657379 9.58206897,22.3437538 9.58206897,23.0567724 C9.58206897,23.7697911 9.00405314,24.3478069 8.29103448,24.3478069 C7.57801583,24.3478069 7,23.7697911 7,23.0567724 C7,22.3437538 7.57801583,21.7657379 8.29103448,21.7657379 Z M8.29103448,14.882869 C9.00405314,14.882869 9.58206897,15.4608848 9.58206897,16.1739034 C9.58206897,16.8869221 9.00405314,17.4649379 8.29103448,17.4649379 C7.57801583,17.4649379 7,16.8869221 7,16.1739034 C7,15.4608848 7.57801583,14.882869 8.29103448,14.882869 Z M8.29103448,8 C9.00405314,8 9.58206897,8.57801583 9.58206897,9.29103448 C9.58206897,10.0040531 9.00405314,10.582069 8.29103448,10.582069 C7.57801583,10.582069 7,10.0040531 7,9.29103448 C7,8.57801583 7.57801583,8 8.29103448,8 Z" id="Shape"></path>
                </g>
            </g>
        </g>
    </g>
</svg>