<?xml version="1.0" encoding="UTF-8"?>
<svg width="40px" height="34px" viewBox="0 0 40 34" version="1.1" xmlns="http://www.w3.org/2000/svg" xmlns:xlink="http://www.w3.org/1999/xlink">
    <title>Icon/Skriv ut</title>
    <g id="Ikoner" stroke="none" stroke-width="1" fill="none" fill-rule="evenodd">
        <g id="Ikoner-40x40" transform="translate(-109.000000, -632.000000)" fill="#00706E" fill-rule="nonzero">
            <g id="Ikoner" transform="translate(105.000000, 190.000000)">
                <g id="Group" transform="translate(4.000000, 440.000000)">
                    <g id="Icon/Skriv-ut" transform="translate(0.000000, 2.000000)">
                        <path d="M31.8235294,6.44354839 C33.4186069,6.44354839 34.7133301,7.72123216 34.8037758,9.3218248 L34.8088235,9.50094877 L34.808,10.5725484 L36.7647059,10.5725806 C38.3597834,10.5725806 39.6545066,11.8502644 39.7449523,13.4508571 L39.75,13.629981 L39.75,27.4743833 C39.75,29.0975854 38.5122438,30.4332407 36.9406548,30.5265742 L36.7647059,30.5317837 L29.0249454,30.5317837 L29.0249454,29.0317837 L36.7647059,29.0317837 C37.5343179,29.0317837 38.175064,28.4145038 38.2438827,27.6169167 L38.25,27.4743833 L38.25,13.629981 C38.25,12.8126934 37.6520101,12.1500086 36.8990919,12.0788995 L36.7647059,12.0725806 L28.9449966,12.0725806 L28.9449966,10.5725806 L33.308,10.5725484 L33.3088235,9.50094877 C33.3088235,8.68366114 32.7108336,8.02097635 31.9579154,7.9498672 L31.8235294,7.94354839 L28.5139735,7.94354839 L28.5139735,6.44354839 L31.8235294,6.44354839 Z M10.5977858,6.44354839 L10.5977858,7.94354839 L7.23529412,7.94354839 C6.46568215,7.94354839 5.824936,8.56082831 5.75611733,9.35841535 L5.75,9.50094877 L5.749,10.5725484 L11.125675,10.5725806 L11.125675,12.0725806 L3.23529412,12.0725806 C2.46568215,12.0725806 1.824936,12.6898606 1.75611733,13.4874476 L1.75,13.629981 L1.75,27.4743833 C1.75,28.2916709 2.34798993,28.9543557 3.10090813,29.0254649 L3.23529412,29.0317837 L11.0429975,29.0317837 L11.0429975,30.5317837 L3.23529412,30.5317837 C1.64021662,30.5317837 0.345493414,29.2540999 0.255047723,27.6535073 L0.25,27.4743833 L0.25,13.629981 C0.25,12.0067789 1.48775615,10.6711236 3.05934523,10.5777901 L3.23529412,10.5725806 L4.249,10.5725484 L4.25,9.50094877 C4.25,7.87774665 5.48775615,6.54209137 7.05934523,6.44875784 L7.23529412,6.44354839 L10.5977858,6.44354839 Z" id="Shape"></path>
                        <path d="M11.75,24.7419355 L11.75,30.5104364 C11.75,31.3277241 12.3479899,31.9904089 13.1009081,32.061518 L13.2352941,32.0678368 L26.6470588,32.0678368 C27.4166708,32.0678368 28.0574169,31.4505569 28.1262356,30.6529698 L28.1323529,30.5104364 L28.1323529,24.7419355 L29.6323529,24.7419355 L29.6323529,30.5104364 C29.6323529,32.1336385 28.3945968,33.4692938 26.8230077,33.5626274 L26.6470588,33.5678368 L13.2352941,33.5678368 C11.6402166,33.5678368 10.3454934,32.290153 10.2550477,30.6895604 L10.25,30.5104364 L10.25,24.7419355 L11.75,24.7419355 Z M25.1764706,28.6978178 C25.5906842,28.6978178 25.9264706,29.0336043 25.9264706,29.4478178 C25.9264706,29.8275136 25.6443167,30.1413088 25.2782411,30.1909712 L25.1764706,30.1978178 L14,30.1978178 C13.5857864,30.1978178 13.25,29.8620314 13.25,29.4478178 C13.25,29.0681221 13.5321539,28.7543269 13.8982294,28.7046645 L14,28.6978178 L25.1764706,28.6978178 Z M26.6470588,0.25 C28.2421363,0.25 29.5368595,1.52768377 29.6273052,3.12827642 L29.6323529,3.30740038 L29.6323529,14.2675522 L28.1323529,14.2675522 L28.1323529,3.30740038 C28.1323529,2.49011275 27.534363,1.82742796 26.7814448,1.75631881 L26.6470588,1.75 L13.2352941,1.75 C12.4656821,1.75 11.824936,2.36727993 11.7561173,3.16486697 L11.75,3.30740038 L11.75,14.2675522 L10.25,14.2675522 L10.25,3.30740038 C10.25,1.68419826 11.4877562,0.348542988 13.0593452,0.25520945 L13.2352941,0.25 L26.6470588,0.25 Z" id="Shape"></path>
                        <path d="M31.3529412,23.5365275 C31.7671547,23.5365275 32.1029412,23.872314 32.1029412,24.2865275 C32.1029412,24.6662233 31.8207873,24.9800185 31.4547117,25.0296809 L31.3529412,25.0365275 L9,25.0365275 C8.58578644,25.0365275 8.25,24.7007411 8.25,24.2865275 C8.25,23.9068317 8.53215388,23.5930366 8.89822944,23.5433741 L9,23.5365275 L31.3529412,23.5365275 Z M31.3529412,13.2139469 C31.7671547,13.2139469 32.1029412,13.5497333 32.1029412,13.9639469 C32.1029412,14.3436426 31.8207873,14.6574378 31.4547117,14.7071003 L31.3529412,14.7139469 L9,14.7139469 C8.58578644,14.7139469 8.25,14.3781604 8.25,13.9639469 C8.25,13.5842511 8.53215388,13.2704559 8.89822944,13.2207935 L9,13.2139469 L31.3529412,13.2139469 Z" id="Shape"></path>
                    </g>
                </g>
            </g>
        </g>
    </g>
</svg>