<?xml version="1.0" encoding="UTF-8"?>
<svg width="40px" height="40px" viewBox="0 0 40 40" version="1.1" xmlns="http://www.w3.org/2000/svg" xmlns:xlink="http://www.w3.org/1999/xlink">
    <title>Icon/Fråga</title>
    <g id="Ikoner" stroke="none" stroke-width="1" fill="none" fill-rule="evenodd">
        <g id="Ikoner-40x40" transform="translate(-967.000000, -1730.000000)" fill="#6F5E4D" fill-rule="nonzero">
            <g id="Ikoner" transform="translate(105.000000, 190.000000)">
                <g id="Icon/Fråga" transform="translate(862.000000, 1540.000000)">
                    <g id="Icon/Information">
                        <path d="M20,0.25 C9.09237619,0.25 0.25,9.09237619 0.25,20 C0.25,30.9076238 9.09237619,39.75 20,39.75 C30.9076238,39.75 39.75,30.9076238 39.75,20 C39.75,9.09237619 30.9076238,0.25 20,0.25 Z M20,1.75 C30.0791967,1.75 38.25,9.92080332 38.25,20 C38.25,30.0791967 30.0791967,38.25 20,38.25 C9.92080332,38.25 1.75,30.0791967 1.75,20 C1.75,9.92080332 9.92080332,1.75 20,1.75 Z" id="Oval-Copy-12"></path>
                    </g>
                    <g id="Group-3" transform="translate(14.000000, 9.000000)">
                        <path d="M6.96575821,14.8494759 L6.96575821,14.0871549 L6.96575821,14.0871549 C6.96575821,12.3185033 7.57624039,11.7289528 9.40768693,10.2550764 C10.9417191,9.0294319 12.4444444,7.71070043 12.4444444,5.19735341 C12.4444444,1.67556468 9.4546471,0 6.32396925,0 C3.54690573,0 0.486235961,1.29836649 0.0521982501,5.00162041 C0.0402705394,5.10338885 0.0297230404,5.321862 0.0205557531,5.65703985 C0.0040887612,6.25948596 0.479110188,6.76122221 1.08155602,6.77769941 C1.09149857,6.77797135 1.10144437,6.77810733 1.11139064,6.77810733 C1.72374338,6.77810733 2.22657741,6.29407816 2.24988288,5.68216906 C2.26094115,5.39211001 2.27359136,5.20381789 2.28783352,5.11729271 C2.576852,3.36142193 3.83513631,1.98585444 6.23004892,1.98585444 C8.23368274,1.98585444 10.0807827,2.96326717 10.0807827,5.32146931 C10.0807827,7.01254848 9.17288609,7.80378736 7.67016073,9.01391741 C6.08916841,10.2861054 4.66470999,11.5272644 4.66470999,13.6682637 L4.66470999,14.8494759 C4.66470999,15.4848928 5.17981718,16 5.8152341,16 C6.45065102,16 6.96575821,15.4848928 6.96575821,14.8494759 Z" id="Path"></path>
                        <path d="M6.02232043,22 C7.12708234,22 8.02232043,21.0857143 8.02232043,20 C8.02232043,18.8952381 7.12708234,18 6.02232043,18 C4.91755853,18 4.02232043,18.8952381 4.02232043,20 C4.02232043,21.0857143 4.91755853,22 6.02232043,22 Z" id="Path"></path>
                    </g>
                </g>
            </g>
        </g>
    </g>
</svg>