<?xml version="1.0" encoding="UTF-8"?>
<svg width="38px" height="36px" viewBox="0 0 38 36" version="1.1" xmlns="http://www.w3.org/2000/svg" xmlns:xlink="http://www.w3.org/1999/xlink">
    <title>Icon/Pratbubbla</title>
    <g id="Ikoner" stroke="none" stroke-width="1" fill="none" fill-rule="evenodd">
        <g id="Ikoner-40x40" transform="translate(-541.000000, -1514.000000)" fill="#00706E">
            <g id="Ikoner" transform="translate(105.000000, 190.000000)">
                <g id="Group" transform="translate(436.000000, 1323.000000)">
                    <g id="Icon/Pratbubbla" transform="translate(0.950000, 1.850000)">
                        <path d="M34.1826002,-0.69375 L2.12420137,-0.69375 C0.690649243,-0.69375 -0.475122018,0.431042454 -0.488190081,1.82681153 L-0.695092793,23.9348262 L-0.690325731,24.0901228 C-0.608084259,25.4256615 0.52799456,26.4817383 1.91739981,26.4817383 L4.9685,26.4809 L5.19109709,34.2443232 L5.20007335,34.3393733 C5.29001447,34.8923908 6.01201217,35.1278798 6.42392429,34.6986432 L14.3089,26.4809 L33.9757986,26.4817383 C35.4093508,26.4817383 36.575122,25.3569458 36.5881901,23.9611768 L36.7950928,1.8531621 C36.7950928,0.445125668 35.6254441,-0.69375 34.1826002,-0.69375 Z M2.12420137,0.69375 L34.1826002,0.69375 C34.7974485,0.69375 35.3031574,1.14873406 35.3639693,1.73178015 L35.3700286,1.86370225 L35.1632493,23.9485285 C35.1573093,24.582969 34.6274132,25.0942383 33.9757986,25.0942383 L13.9998053,25.0942383 L13.9020737,25.1007921 C13.7411088,25.1224917 13.5914837,25.1973407 13.4792017,25.3143451 L6.5664,32.516525 L6.37410094,25.7686651 C6.36335588,25.3931888 6.0476513,25.0942383 5.66187738,25.0942383 L1.91739981,25.0942383 C1.30255155,25.0942383 0.796842602,24.6392542 0.736030735,24.0562081 L0.729971351,23.924286 L0.936750709,1.83945978 C0.942690738,1.2050193 1.47258677,0.69375 2.12420137,0.69375 Z" id="Rectangle-Copy-10" fill-rule="nonzero"></path>
                        <g id="Group-4" transform="translate(7.600000, 11.100000)">
                            <ellipse id="Oval" cx="2.07272727" cy="1.85" rx="2.07272727" ry="1.85"></ellipse>
                            <ellipse id="Oval-Copy" cx="10.0181818" cy="1.85" rx="2.07272727" ry="1.85"></ellipse>
                            <ellipse id="Oval-Copy-5" cx="17.9636364" cy="1.85" rx="2.07272727" ry="1.85"></ellipse>
                        </g>
                    </g>
                </g>
            </g>
        </g>
    </g>
</svg>