<?xml version="1.0" encoding="utf-8"?>
<!-- Generator: Adobe Illustrator 22.1.0, SVG Export Plug-In . SVG Version: 6.00 Build 0)  -->
<svg version="1.1" id="Layer_1" xmlns="http://www.w3.org/2000/svg" xmlns:xlink="http://www.w3.org/1999/xlink" x="0px" y="0px"
	 viewBox="0 0 172.5 135.2" style="enable-background:new 0 0 172.5 135.2;" xml:space="preserve">
<style type="text/css">
	.st0{clip-path:url(#SVGID_2_);fill:#D8D8D8;}
	.st1{clip-path:url(#SVGID_4_);fill:#E9EAED;}
	.st2{clip-path:url(#SVGID_6_);fill:#CDCED6;}
	.st3{clip-path:url(#SVGID_8_);fill:#AEAFBC;}
	.st4{clip-path:url(#SVGID_10_);fill:#CDCED6;}
	.st5{clip-path:url(#SVGID_12_);fill:#A9B2BD;}
	.st6{enable-background:new    ;}
	.st7{clip-path:url(#SVGID_14_);}
	.st8{fill:#FFFFFF;}
</style>
<g>
	<g>
		<defs>
			<path id="SVGID_1_" d="M26.9,102.2L11.7,113c-1.2,0.8-0.8,2.6,0.6,2.9c17.7,3.9,91.2,20.3,91.5,19.4c0.3-0.9,55.3-48.2,68.1-60.2
				c1.2-1.2,0.7-3.2-1-3.6l-60.1-14L26.9,102.2z"/>
		</defs>
		<clipPath id="SVGID_2_">
			<use xlink:href="#SVGID_1_"  style="overflow:visible;"/>
		</clipPath>
		<rect x="3.8" y="50.2" class="st0" width="175.8" height="92.1"/>
	</g>
	<g>
		<defs>
			<polygon id="SVGID_3_" points="78.1,42 138.4,51.4 94.5,63.7 62.9,54 			"/>
		</defs>
		<clipPath id="SVGID_4_">
			<use xlink:href="#SVGID_3_"  style="overflow:visible;"/>
		</clipPath>
		<rect x="55.7" y="34.8" class="st1" width="89.8" height="36"/>
	</g>
	<g>
		<defs>
			<path id="SVGID_5_" d="M78.1,0l89.6,11.4l-0.2,41.3c0,3.3-3.1,5.8-6.3,5.2L78.1,42V0z"/>
		</defs>
		<clipPath id="SVGID_6_">
			<use xlink:href="#SVGID_5_"  style="overflow:visible;"/>
		</clipPath>
		<rect x="70.9" y="-7.2" class="st2" width="103.9" height="72.3"/>
	</g>
	<g>
		<defs>
			<path id="SVGID_7_" d="M0.7,37L78.1,0v42L6.3,98c-1.3,1-3.3,0.2-3.3-1.5L0,38.2C0,37.7,0.2,37.3,0.7,37"/>
		</defs>
		<clipPath id="SVGID_8_">
			<use xlink:href="#SVGID_7_"  style="overflow:visible;"/>
		</clipPath>
		<rect x="-7.2" y="-7.2" class="st3" width="92.4" height="112.8"/>
	</g>
	<g>
		<defs>
			<path id="SVGID_9_" d="M1.4,37.6l98.8,15.5l1.1,67.1L4.7,100.8c-0.9-0.2-1.6-1-1.7-1.9l-3-60C0,38.1,0.7,37.5,1.4,37.6"/>
		</defs>
		<clipPath id="SVGID_10_">
			<use xlink:href="#SVGID_9_"  style="overflow:visible;"/>
		</clipPath>
		<rect x="-7.1" y="30.5" class="st4" width="115.6" height="96.9"/>
	</g>
	<g>
		<defs>
			<path id="SVGID_11_" d="M100.2,53.1l67.5-41.7l-0.3,45.4c0,1.5-0.6,2.9-1.7,3.8l-64.4,59.5L100.2,53.1z"/>
		</defs>
		<clipPath id="SVGID_12_">
			<use xlink:href="#SVGID_11_"  style="overflow:visible;"/>
		</clipPath>
		<rect x="93.1" y="4.3" class="st5" width="81.8" height="123.1"/>
	</g>
	<g>
		<g class="st6">
			<defs>
				<polygon id="SVGID_13_" class="st6" points="37.6,90.4 36.4,58.6 60.5,63 61.7,94.8 				"/>
			</defs>
			<clipPath id="SVGID_14_">
				<use xlink:href="#SVGID_13_"  style="overflow:visible;"/>
			</clipPath>
			<g class="st7">
				<path class="st8" d="M59,69.8L38.4,66l0.8,21.2c0.1,1.9,1.7,3.8,3.6,4.2l13.7,2.5c1.9,0.3,3.4-1,3.3-2.9L59,69.8 M52.8,61.6
					L44.2,60l-1.7,1.5l-6-1.1l0.1,3.5l24,4.4l-0.1-3.5l-6-1.1L52.8,61.6"/>
			</g>
		</g>
	</g>
</g>
</svg>
