<?xml version="1.0" encoding="UTF-8"?>
<svg width="40px" height="40px" viewBox="0 0 40 40" version="1.1" xmlns="http://www.w3.org/2000/svg" xmlns:xlink="http://www.w3.org/1999/xlink">
    <title>Icon/Soptunna</title>
    <g id="Ikoner" stroke="none" stroke-width="1" fill="none" fill-rule="evenodd">
        <g id="Ikoner-40x40" transform="translate(-747.000000, -630.000000)" fill="#00706E" fill-rule="nonzero">
            <g id="Ikoner" transform="translate(105.000000, 190.000000)">
                <g id="Icon/Soptunna" transform="translate(642.000000, 440.000000)">
                    <path d="M20,0.25 C23.0919909,0.25 25.6139652,2.69053112 25.7446778,5.75034825 L39,5.75 C39.4142136,5.75 39.75,6.08578644 39.75,6.5 C39.75,6.87969577 39.4678461,7.19349096 39.1017706,7.24315338 L39,7.25 L34.728,7.25 L31.75,37.1621622 C31.75,38.5685255 30.508913,39.6660332 28.9941247,39.7454009 L28.8181818,39.75 L11.1818182,39.75 C9.64740699,39.75 8.34948993,38.7045799 8.25874103,37.3893082 L8.25368249,37.2363927 L5.271,7.25 L1,7.25 C0.585786438,7.25 0.25,6.91421356 0.25,6.5 C0.25,6.12030423 0.532153882,5.80650904 0.898229443,5.75684662 L1,5.75 L14.2553203,5.75039251 C14.3860105,2.69055465 16.9079942,0.25 20,0.25 Z M33.221,7.25 L6.778,7.25 L9.75,37.1621622 C9.75,37.6961297 10.2907694,38.1850156 11.0311761,38.2440405 L11.1818182,38.25 L28.8181818,38.25 C29.5836907,38.25 30.1723044,37.7944871 30.2459251,37.2070765 L30.2536825,37.0879317 L33.221,7.25 Z M20,1.75 C17.7367154,1.75 15.8866385,3.51915212 15.7572312,5.75 L24.2427688,5.75 C24.1133615,3.51915212 22.2632846,1.75 20,1.75 Z" id="Shape"></path>
                    <path d="M13.5384615,12.6785714 C13.9181573,12.6785714 14.2319525,12.9607253 14.2816149,13.3268009 L14.2884615,13.4285714 L14.2884615,30.5714286 C14.2884615,30.9856421 13.9526751,31.3214286 13.5384615,31.3214286 C13.1587658,31.3214286 12.8449706,31.0392747 12.7953082,30.6731991 L12.7884615,30.5714286 L12.7884615,13.4285714 C12.7884615,13.0143579 13.124248,12.6785714 13.5384615,12.6785714 Z M22.1538462,12.6785714 C22.5335419,12.6785714 22.8473371,12.9607253 22.8969995,13.3268009 L22.9038462,13.4285714 L22.9038462,30.5714286 C22.9038462,30.9856421 22.5680597,31.3214286 22.1538462,31.3214286 C21.7741504,31.3214286 21.4603552,31.0392747 21.4106928,30.6731991 L21.4038462,30.5714286 L21.4038462,13.4285714 C21.4038462,13.0143579 21.7396326,12.6785714 22.1538462,12.6785714 Z M26.4615385,12.6785714 C26.8412342,12.6785714 27.1550294,12.9607253 27.2046918,13.3268009 L27.2115385,13.4285714 L27.2115385,30.5714286 C27.2115385,30.9856421 26.875752,31.3214286 26.4615385,31.3214286 C26.0818427,31.3214286 25.7680475,31.0392747 25.7183851,30.6731991 L25.7115385,30.5714286 L25.7115385,13.4285714 C25.7115385,13.0143579 26.0473249,12.6785714 26.4615385,12.6785714 Z M17.8461538,12.6785714 C18.2258496,12.6785714 18.5396448,12.9607253 18.5893072,13.3268009 L18.5961538,13.4285714 L18.5961538,30.5714286 C18.5961538,30.9856421 18.2603674,31.3214286 17.8461538,31.3214286 C17.4664581,31.3214286 17.1526629,31.0392747 17.1030005,30.6731991 L17.0961538,30.5714286 L17.0961538,13.4285714 C17.0961538,13.0143579 17.4319403,12.6785714 17.8461538,12.6785714 Z" id="Shape"></path>
                </g>
            </g>
        </g>
    </g>
</svg>