<svg focusable="false" aria-hidden="true" xmlns="http://www.w3.org/2000/svg" width="35" height="35" viewBox="0 0 40 40">
  <g fill="#00706e">
    <path
        d="M14.836 35.592c.472-.422.999-.91 1.566-1.457 1.623-1.563 3.246-3.287 4.76-5.117 3.209-3.882 5.478-7.7 6.396-11.23.293-1.125.443-2.208.443-3.244 0-1.38-.217-2.733-.636-4.023-1.185-3.631-3.937-6.597-7.49-8.086C18.25 1.755 16.5 1.4 14.7 1.4 7.366 1.4 1.4 7.299 1.4 14.544c0 1.036.15 2.119.443 3.245.918 3.53 3.187 7.347 6.397 11.229 1.513 1.83 3.136 3.554 4.759 5.117.567.547 1.094 1.035 1.566 1.457l.135.12.136-.12zm-.586 1.584c-.115-.097-.325-.279-.618-.54-.484-.433-1.024-.933-1.605-1.493-1.658-1.598-3.317-3.359-4.866-5.233-3.329-4.026-5.694-8.005-6.673-11.769C.166 16.904 0 15.704 0 14.544 0 6.522 6.596 0 14.7 0c1.986 0 3.92.392 5.716 1.144 3.927 1.646 6.968 4.923 8.28 8.944.465 1.429.705 2.928.705 4.456 0 1.16-.166 2.36-.488 3.597-.979 3.764-3.345 7.743-6.673 11.769-1.55 1.874-3.208 3.635-4.866 5.233-.581.56-1.12 1.06-1.606 1.493-.292.261-.502.443-.617.54-.26.219-.64.219-.901 0z"
        transform="translate(-410 -342) translate(410 342) translate(6 2)"
    />
    <path
        d="M15.77 29.812c1.022-1.059 2.044-2.178 2.997-3.308.715-.847 1.362-1.667 1.926-2.448.704-.975 1.266-1.87 1.66-2.664.173-.346.593-.487.94-.315.345.172.486.593.314.939-.433.87-1.033 1.828-1.78 2.86-.585.811-1.254 1.658-1.99 2.53-.975 1.156-2.017 2.299-3.06 3.379-.365.378-.704.72-1.008 1.023l-.387.38c-.13.125-.304.195-.485.195h-.112c-.181 0-.355-.07-.485-.195-.072-.07-.204-.198-.387-.38-.305-.302-.644-.646-1.009-1.024-1.042-1.08-2.085-2.222-3.06-3.378-.736-.873-1.404-1.72-1.99-2.531-.747-1.034-1.347-1.992-1.78-2.863-.173-.346-.032-.767.315-.939.346-.172.766-.03.938.316.395.794.957 1.69 1.662 2.666.564.78 1.21 1.6 1.926 2.448.952 1.13 1.974 2.25 2.997 3.309.334.347.646.663.929.944.282-.28.594-.597.929-.944z"
        transform="translate(-410 -342) translate(410 342) translate(6 2)"
    />
  </g>
  <path
      fill="#01a5a3"
      d="M20.5 20.75c3.452 0 6.25-2.798 6.25-6.25s-2.798-6.25-6.25-6.25-6.25 2.798-6.25 6.25 2.798 6.25 6.25 6.25zm0-1.5c-2.623 0-4.75-2.127-4.75-4.75s2.127-4.75 4.75-4.75 4.75 2.127 4.75 4.75-2.127 4.75-4.75 4.75z"
      transform="translate(-410 -342) translate(410 342)"
  />
</svg>